<?xml version="1.0" standalone="no"?>
<!DOCTYPE svg PUBLIC "-//W3C//DTD SVG 20010904//EN"
 "http://www.w3.org/TR/2001/REC-SVG-20010904/DTD/svg10.dtd">
<svg version="1.0" xmlns="http://www.w3.org/2000/svg"
 width="512.000000pt" height="512.000000pt" viewBox="0 0 512.000000 512.000000"
 preserveAspectRatio="xMidYMid meet">
<metadata>
Created by potrace 1.16, written by Peter Selinger 2001-2019
</metadata>
<g transform="translate(0.000000,512.000000) scale(0.100000,-0.100000)"
fill="#000000" stroke="none">
<path d="M2570 3290 l0 -470 -33 0 c-53 0 -183 -37 -255 -72 -92 -45 -215
-168 -260 -260 -93 -192 -94 -379 -1 -567 93 -189 265 -305 502 -337 l47 -6 0
-466 0 -465 88 7 c165 13 318 47 477 108 356 135 680 439 835 784 167 369 191
772 69 1139 -79 235 -196 423 -379 606 -219 220 -478 363 -765 423 -56 12
-294 46 -319 46 -3 0 -6 -211 -6 -470z m541 -225 c241 -63 384 -319 314 -561
-22 -76 -46 -117 -109 -182 -64 -67 -96 -86 -181 -113 -211 -65 -436 27 -534
218 -130 256 4 562 279 639 63 17 161 17 231 -1z"/>
</g>
</svg>
